#!OML:ASF E:\inclinewalkrobotboard\Project 1\Capture day 1\Session 1\subject1.ASF
:FULLY-SPECIFIED
:DEGREES
310
root 8.70136 23.7859 -5.07988 -173.101 1.79201 178.027
lowerback 1.80661 3.36883 -5.0087
upperback 4.92973 4.80611 0.544682
thorax 3.6435 2.32693 3.41474
lowerneck -7.37078 0.561109 -3.42278
upperneck 30.1087 -3.34019 6.30467
head 11.0513 -2.15602 2.32825
rclavicle 4.80065e-014 -1.43125e-014
rhumerus -11.6764 -0.543073 -92.8158
rradius 41.166
rwrist 0.988903
rhand -14.106 -36.6863
rfingers 7.12502
rthumb 12.0269 -66.3207
lclavicle 4.80065e-014 -1.43125e-014
lhumerus -40.8899 29.5261 62.9203
lradius 11.3152
lwrist -44.696
lhand -24.0746 -22.3214
lfingers 7.12502
lthumb 2.40527 7.64479
rfemur -5.48405 4.83907 22.3421
rtibia 14.3822
rfoot -26.6231 -2.45589
rtoes -22.3503
lfemur -44.1406 -6.32668 -15.0386
ltibia 28.4091
lfoot -8.03904 5.54491
ltoes -63.2496
311
root 8.68065 23.7781 -5.27893 -173.185 2.19793 177.746
lowerback 1.74816 3.51533 -5.35422
upperback 4.89318 5.00908 0.3698
thorax 3.60918 2.41972 3.42728
lowerneck -7.44127 0.614603 -3.51383
upperneck 30.3541 -3.32059 6.36196
head 11.1608 -2.16205 2.36861
rclavicle 3.54831e-014 -9.14409e-015
rhumerus -12.225 -0.913766 -93.2442
rradius 40.6674
rwrist 1.68388
rhand -13.7344 -36.0744
rfingers 7.12502
rthumb 12.3852 -65.6875
lclavicle 3.54831e-014 -9.14409e-015
lhumerus -40.9507 29.3409 63.0934
lradius 11.3276
lwrist -44.5529
lhand -24.3073 -22.8309
lfingers 7.12502
lthumb 2.18057 7.1377
rfemur -4.51637 4.85582 21.9809
rtibia 14.1595
rfoot -26.9796 -2.7245
rtoes -25.7411
lfemur -43.8944 -6.12401 -15.6701
ltibia 29.3482
lfoot -7.53971 4.79727
ltoes -62.4529
312
root 8.65382 23.7714 -5.47856 -173.045 2.68635 177.699
lowerback 1.47814 3.70101 -5.40451
upperback 4.80958 5.2641 0.217596
thorax 3.65907 2.54256 3.3138
lowerneck -7.5319 0.645369 -3.40132
upperneck 30.619 -3.30546 6.20156
head 11.2777 -2.16979 2.29235
rclavicle 1.64991e-014 -8.74653e-015
rhumerus -12.7841 -1.51836 -93.5673
rradius 40.1489
rwrist 2.27959
rhand -13.2028 -36.0308
rfingers 7.12502
rthumb 12.8977 -65.6123
lclavicle 1.64991e-014 -8.74653e-015
lhumerus -40.6705 28.1949 64.0203
lradius 11.5031
lwrist -43.1724
lhand -24.3534 -23.2138
lfingers 7.12502
lthumb 2.1361 6.75525
rfemur -3.88645 4.95333 21.7995
rtibia 14.1572
rfoot -27.3499 -2.52612
rtoes -26.6037
lfemur -43.9136 -5.892 -15.967
ltibia 30.706
lfoot -9.17786 4.72743
ltoes -61.9043
313
root 8.6289 23.7696 -5.6615 -172.846 2.86493 177.81
lowerback 1.47962 3.70299 -5.39688
upperback 4.64884 5.244 0.212398
thorax 3.49206 2.5342 3.29568
lowerneck -7.60133 0.754356 -3.44458
upperneck 30.8475 -3.13235 6.03006
head 11.3677 -2.12486 2.25768
rclavicle -7.94145e-014 1.43125e-014
rhumerus -13.367 -1.77688 -93.7403
rradius 39.3781
rwrist 2.24043
rhand -12.7387 -37.2628
rfingers 7.12502
rthumb 13.3451 -66.8155
lclavicle -7.94145e-014 1.43125e-014
lhumerus -40.5342 27.5992 64.8245
lradius 11.6979
lwrist -41.8134
lhand -24.5274 -23.3268
lfingers 7.12502
lthumb 1.96799 6.64386
rfemur -3.32282 5.30786 21.8369
rtibia 14.2733
rfoot -27.6668 -2.13919
rtoes -23.5234
lfemur -44.0612 -5.98186 -16.0148
ltibia 32.1838
lfoot -11.2921 4.86933
ltoes -61.6867
314
root 8.59514 23.7744 -5.86334 -172.81 3.44611 177.619
lowerback 1.32379 3.55053 -5.84465
upperback 4.79005 5.07016 0.226988
thorax 3.71025 2.42565 3.5772
lowerneck -7.33041 1.01564 -4.65421
upperneck 29.6899 -2.61629 7.27048
head 10.8514 -1.83962 2.98012
rclavicle 1.22253e-014 1.19271e-014
rhumerus -13.5796 -1.28302 -93.9555
rradius 38.3596
rwrist 1.96885
rhand -12.2344 -39.1199
rfingers 7.12502
rthumb 13.8311 -68.64
lclavicle 1.22253e-014 1.19271e-014
lhumerus -40.8526 32.466 62.5475
lradius 10.7716
lwrist -45.5433
lhand -24.9584 -23.2775
lfingers 7.12502
lthumb 1.55171 6.69656
rfemur -2.51781 5.83968 21.49
rtibia 14.2356
rfoot -27.617 -1.77578
rtoes -21.8712
lfemur -43.461 -6.14088 -16.3771
ltibia 32.7831
lfoot -13.0748 5.04805
ltoes -61.2875
315
root 8.55969 23.7865 -6.05785 -172.598 3.81371 177.436
lowerback 1.13512 3.90536 -5.87629
upperback 4.59677 5.55247 -0.211809
thorax 3.60488 2.67549 3.14768
lowerneck -5.94251 0.966942 -5.27386
upperneck 27.8537 -2.99203 9.52969
head 9.94826 -1.8406 3.83429
rclavicle 4.12478e-014 -1.25234e-014
rhumerus -14.3791 -3.16756 -94.1935
rradius 37.5569
rwrist 1.74065
rhand -12.371 -39.9768
rfingers 7.12502
rthumb 13.6994 -69.5059
lclavicle 4.12478e-014 -1.25234e-014
lhumerus -39.9669 31.8346 63.028
lradius 10.6738
lwrist -45.1665
lhand -25.0414 -22.9058
lfingers 7.12502
lthumb 1.47163 7.06884
rfemur -1.99226 6.14013 21.123
rtibia 14.2215
rfoot -27.3306 -1.57241
rtoes -21.8991
lfemur -43.0127 -6.47246 -16.794
ltibia 33.0887
lfoot -14.5563 5.12715
ltoes -60.9059
316
root 8.52467 23.8145 -6.2539 -172.254 4.53315 177.636
lowerback 0.764484 3.9889 -6.01036
upperback 4.6798 5.6914 -0.132346
thorax 3.86874 2.72635 3.33827
lowerneck -5.88507 1.04355 -5.82663
upperneck 27.3549 -2.7651 9.9196
head 9.74063 -1.72951 4.08583
rclavicle -5.06901e-015 2.38542e-014
rhumerus -14.5464 -3.63499 -93.9125
rradius 36.051
rwrist 1.9429
rhand -13.6705 -37.1177
rfingers 7.12502
rthumb 12.4468 -66.7271
lclavicle -5.06901e-015 2.38542e-014
lhumerus -39.2885 31.5393 64.3697
lradius 10.9557
lwrist -43.7517
lhand -25.0918 -22.8344
lfingers 7.12502
lthumb 1.42287 7.14062
rfemur -1.85724 6.51849 21.0989
rtibia 14.4927
rfoot -26.8247 -1.42281
rtoes -23.1378
lfemur -42.623 -6.52962 -16.6793
ltibia 33.3347
lfoot -15.7408 5.40768
ltoes -60.2109
317
root 8.47621 23.8635 -6.44107 -172.056 3.8208 177.477
lowerback 0.840355 3.90807 -5.87976
upperback 4.52738 5.57111 -0.352496
thorax 3.70996 2.68127 3.02561
lowerneck -5.17699 0.901105 -5.64174
upperneck 27.0768 -3.09038 10.0723
head 9.53497 -1.88124 4.06536
rclavicle 2.5345e-015 -9.93923e-016
rhumerus -15.3158 -5.55157 -93.5797
rradius 34.7307
rwrist 2.47808
rhand -14.5214 -35.6993
rfingers 7.12502
rthumb 11.6263 -65.3567
lclavicle 2.5345e-015 -9.93923e-016
lhumerus -38.2899 29.5803 66.0899
lradius 11.2032
lwrist -41.9766
lhand -25.1018 -22.7632
lfingers 7.12502
lthumb 1.4132 7.21183
rfemur -1.29304 6.01132 20.7082
rtibia 14.3357
rfoot -26.0367 -2.23968
rtoes -26.5428
lfemur -42.5619 -7.97541 -17.0478
ltibia 34.1047
lfoot -16.6624 5.3387
ltoes -59.5101
318
root 8.44186 23.9134 -6.61693 -171.422 4.55404 177.503
lowerback 0.374843 4.04865 -6.30614
upperback 4.36929 5.7737 -0.388921
thorax 3.75441 2.76005 3.25296
lowerneck -5.11144 0.963185 -5.53828
upperneck 26.9977 -2.94374 9.8742
head 9.47763 -1.81938 3.98822
rclavicle 6.60959e-015 -1.51076e-014
rhumerus -15.9073 -6.65488 -93.193
rradius 33.3816
rwrist 3.05852
rhand -14.7374 -36.4966
rfingers 7.12502
rthumb 11.418 -66.1657
lclavicle 6.60959e-015 -1.51076e-014
lhumerus -37.401 28.191 67.9069
lradius 11.6203
lwrist -40.0714
lhand -24.9964 -22.7488
lfingers 7.12502
lthumb 1.51507 7.22559
rfemur -1.77404 6.25117 20.3475
rtibia 15.0074
rfoot -25.126 -1.9968
rtoes -31.5161
lfemur -42.6543 -7.98608 -17.0892
ltibia 34.5456
lfoot -17.6543 5.57424
ltoes -59.1587
319
root 8.38021 23.9786 -6.81825 -171.368 3.74223 177.258
lowerback 0.348131 3.65264 -6.46468
upperback 4.52879 5.27336 -0.376056
thorax 3.97396 2.50025 3.35989
lowerneck -4.90836 0.920397 -5.52207
upperneck 27.0491 -3.0151 9.70453
head 9.46177 -1.88306 3.91776
rclavicle 7.38485e-014 -2.68359e-014
rhumerus -16.3248 -7.90686 -92.4973
rradius 31.7976
rwrist 4.34377
rhand -14.576 -37.327
rfingers 7.12502
rthumb 11.5736 -66.9874
lclavicle 7.38485e-014 -2.68359e-014
lhumerus -36.3336 27.1185 69.7392
lradius 11.9594
lwrist -38.7555
lhand -24.7903 -22.7812
lfingers 7.12502
lthumb 1.71405 7.19165
rfemur -1.01533 5.68317 19.7483
rtibia 15.0873
rfoot -24.0976 -2.04368
rtoes -35.3883
lfemur -41.93 -9.38151 -17.7007
ltibia 34.5128
lfoot -18.3673 5.31918
ltoes -58.9744
320
root 8.34037 24.0489 -6.99001 -171.104 4.21902 177.184
lowerback 0.330217 3.82012 -6.91366
upperback 4.49552 5.5072 -0.414629
thorax 3.89304 2.60482 3.56842
lowerneck -5.17804 0.871272 -5.68911
upperneck 27.1674 -3.11958 9.91878
head 9.56912 -1.91885 4.01773
rclavicle -5.03422e-014 4.17448e-015
rhumerus -16.7555 -9.96634 -91.5314
rradius 29.9338
rwrist 6.44924
rhand -14.013 -37.8122
rfingers 7.12502
rthumb 12.1165 -67.4413
lclavicle -5.03422e-014 4.17448e-015
lhumerus -35.2514 24.4142 72.2267
lradius 12.7935
lwrist -36.3075
lhand -24.49 -22.5316
lfingers 7.12502
lthumb 2.0041 7.43878
rfemur -1.23274 5.98881 19.3234
rtibia 16.0434
rfoot -22.8273 -1.50134
rtoes -36.6775
lfemur -41.0586 -9.13592 -18.1141
ltibia 33.965
lfoot -18.912 5.05847
ltoes -58.821
321
root 8.2787 24.1291 -7.19665 -171.01 4.32064 177.104
lowerback 0.102532 3.93005 -6.91692
upperback 4.54744 5.69053 -0.591435
thorax 4.07472 2.69397 3.41139
lowerneck -5.59029 0.749595 -5.80392
upperneck 27.5202 -3.46695 10.3629
head 9.81633 -2.04884 4.1728
rclavicle 9.24349e-015 -7.55382e-015
rhumerus -17.4131 -12.782 -90.454
rradius 28.0062
rwrist 8.86048
rhand -13.7749 -37.7473
rfingers 7.12502
rthumb 12.3462 -67.3627
lclavicle 9.24349e-015 -7.55382e-015
lhumerus -34.3604 20.0057 75.1093
lradius 14.214
lwrist -32.4796
lhand -24.3182 -22.4961
lfingers 7.12502
lthumb 2.17002 7.47263
rfemur -1.10408 5.93041 18.7859
rtibia 16.8482
rfoot -21.3729 -0.999185
rtoes -37.1093
lfemur -39.706 -9.45694 -18.5792
ltibia 33
lfoot -19.4419 5.07974
ltoes -58.772
322
root 8.23309 24.2083 -7.36999 -170.698 3.9862 177.19
lowerback 0.178971 3.8513 -6.95596
upperback 4.36956 5.56039 -0.645495
thorax 3.85949 2.63619 3.36017
lowerneck -5.72844 0.706814 -5.94775
upperneck 27.8165 -3.70903 10.746
head 9.98184 -2.1538 4.3196
rclavicle -8.05078e-015 2.93207e-014
rhumerus -18.7949 -15.33 -89.2551
rradius 26.9019
rwrist 11.0184
rhand -14.4274 -36.922
rfingers 7.12502
rthumb 11.717 -66.5743
lclavicle -8.05078e-015 2.93207e-014
lhumerus -33.544 16.8356 77.2326
lradius 15.2692
lwrist -29.8912
lhand -24.2168 -22.7226
lfingers 7.12502
lthumb 2.268 7.24511
rfemur -1.46235 5.68139 18.6164
rtibia 18.0814
rfoot -19.7895 -0.834957
rtoes -37.8218
lfemur -38.8587 -9.56213 -18.8398
ltibia 32.2584
lfoot -19.7876 4.6627
ltoes -58.8792
